<?xml version="1.0" encoding="iso-8859-1"?>
<!-- Uploaded to: SVG Repo, www.svgrepo.com, Generator: SVG Repo Mixer Tools -->
<svg version="1.1" id="Layer_1" xmlns="http://www.w3.org/2000/svg" xmlns:xlink="http://www.w3.org/1999/xlink" 
	 viewBox="0 0 512.001 512.001" xml:space="preserve">
<path style="fill:#E2804F;" d="M384.058,247.998c-66.304,0-120.054,53.75-120.054,120.054c0,66.303,53.75,120.054,120.054,120.054
	s120.054-53.751,120.054-120.054C504.112,301.748,450.362,247.998,384.058,247.998z M384.058,464.095
	c-53.044,0-96.043-43-96.043-96.043s43-96.043,96.043-96.043s96.043,43,96.043,96.043S437.101,464.095,384.058,464.095z"/>
<rect x="31.894" y="15.895" style="fill:#F2BF7E;" width="336.15" height="48.022"/>
<g>
	<rect x="79.921" y="15.895" style="fill:#D4E4AC;" width="48.022" height="48.022"/>
	<rect x="175.964" y="15.895" style="fill:#D4E4AC;" width="48.022" height="48.022"/>
	<rect x="272.004" y="15.895" style="fill:#D4E4AC;" width="48.022" height="48.022"/>
</g>
<rect x="95.924" y="63.915" style="fill:#F2BF7E;" width="336.15" height="48.022"/>
<g>
	<rect x="143.954" y="63.915" style="fill:#D4E4AC;" width="48.022" height="48.022"/>
	<rect x="239.994" y="63.915" style="fill:#D4E4AC;" width="48.022" height="48.022"/>
	<rect x="336.034" y="63.915" style="fill:#D4E4AC;" width="48.022" height="48.022"/>
</g>
<rect x="143.954" y="111.935" style="fill:#F2BF7E;" width="336.15" height="48.022"/>
<g>
	<rect x="191.974" y="111.935" style="fill:#D4E4AC;" width="48.022" height="48.022"/>
	<rect x="288.014" y="111.935" style="fill:#D4E4AC;" width="48.022" height="48.022"/>
	<rect x="384.054" y="111.935" style="fill:#D4E4AC;" width="48.022" height="48.022"/>
</g>
<rect x="79.921" y="159.955" style="fill:#F2BF7E;" width="336.15" height="48.022"/>
<g>
	<rect x="127.944" y="159.955" style="fill:#D4E4AC;" width="48.022" height="48.022"/>
	<rect x="223.984" y="159.955" style="fill:#D4E4AC;" width="48.022" height="48.022"/>
	<rect x="320.034" y="159.955" style="fill:#D4E4AC;" width="48.022" height="48.022"/>
</g>
<rect x="15.894" y="207.985" style="fill:#F2BF7E;" width="336.15" height="48.022"/>
<g>
	<rect x="63.914" y="207.985" style="fill:#D4E4AC;" width="48.022" height="48.022"/>
	<rect x="159.954" y="207.985" style="fill:#D4E4AC;" width="48.022" height="48.022"/>
	<rect x="256.004" y="207.985" style="fill:#D4E4AC;" width="48.022" height="48.022"/>
</g>
<polygon style="fill:#F2BF7E;" points="280.011,304.023 79.921,304.023 79.921,256.001 328.033,256.001 "/>
<g>
	<rect x="127.944" y="256.005" style="fill:#D4E4AC;" width="48.022" height="48.022"/>
	<rect x="223.984" y="256.005" style="fill:#D4E4AC;" width="48.022" height="48.022"/>
</g>
<polygon style="fill:#F2BF7E;" points="264.004,352.044 7.889,352.044 7.889,304.023 280.011,304.023 "/>
<g>
	<rect x="55.909" y="304.025" style="fill:#D4E4AC;" width="48.022" height="48.022"/>
	<rect x="151.949" y="304.025" style="fill:#D4E4AC;" width="48.022" height="48.022"/>
</g>
<rect x="71.919" y="352.045" style="fill:#F2BF7E;" width="192.09" height="48.022"/>
<g>
	<rect x="119.939" y="352.045" style="fill:#D4E4AC;" width="48.022" height="48.022"/>
	<rect x="215.979" y="352.045" style="fill:#D4E4AC;" width="48.022" height="48.022"/>
</g>
<polygon style="fill:#F2BF7E;" points="296.018,448.088 39.903,448.088 39.903,400.066 264.004,400.066 "/>
<g>
	<rect x="87.929" y="400.065" style="fill:#D4E4AC;" width="48.022" height="48.022"/>
	<rect x="183.969" y="400.065" style="fill:#D4E4AC;" width="48.022" height="48.022"/>
</g>
<rect x="15.894" y="448.085" style="fill:#F2BF7E;" width="288.13" height="48.022"/>
<g>
	<rect x="63.914" y="448.085" style="fill:#D4E4AC;" width="48.022" height="48.022"/>
	<rect x="159.954" y="448.085" style="fill:#D4E4AC;" width="48.022" height="48.022"/>
	<rect x="256.004" y="448.085" style="fill:#D4E4AC;" width="48.022" height="48.022"/>
</g>
<path d="M439.969,104.048V56.026H375.94V8.004H24.01v63.801h64.029v48.022h48.021v32.242H72.032v48.022H8.003v63.8h64.028v32.242H0
	v63.801h64.028v32.242H32.014v48.022H8.003v63.8H311.91v-23.598h-15.779v7.819h-33.82v-32.242h9.695v-15.779h-33.889v-32.243h9.88
	v-15.779h-24.606v-32.242h24.606v-15.779H206.56v-32.243H256v-15.779h-24.194V263.89h64.212v-15.779h-33.706v-32.242h32.609v31.716
	H310.7v-31.716h33.454v16.122h15.779v-16.122h64.029v-48.022h64.029v-63.8H439.969z M390.645,71.805h33.546v32.243h-33.546
	L390.645,71.805L390.645,71.805z M390.645,119.827h32.609v32.242h-32.609V119.827z M326.478,23.783h33.683v32.243h-33.683V23.783z
	 M374.866,71.805v32.243h-31.557V71.805H374.866z M293.869,104.048V71.805h33.661v32.243H293.869z M327.53,119.827v32.242h-33.661
	v-32.242H327.53z M279.142,23.783H310.7v32.243h-31.557V23.783z M231.806,23.783h31.557v32.243h-31.557V23.783z M95.057,407.955
	h31.557v32.243H95.057V407.955z M79.807,392.177v-32.242h31.029v32.242H79.807z M109.784,344.155v-32.243h33.661v32.243H109.784z
	 M151.861,248.112h-33.661v-32.242h33.661V248.112z M166.587,263.89v32.242H135.03V263.89H166.587z M119.251,263.89v32.242H87.81
	V263.89H119.251z M126.615,359.933h31.557v32.242h-31.557V359.933z M142.393,407.955h32.609v32.243h-32.609V407.955z
	 M159.224,311.912h31.557v32.243h-31.557V311.912z M151.84,119.827h31.579v32.242H151.84V119.827z M150.809,104.048V71.805h32.609
	v32.243H150.809z M167.639,215.869h31.557v32.242h-31.557V215.869z M182.366,200.091v-32.243h33.661v32.243H182.366z
	 M199.197,152.069v-32.242h31.557v32.242H199.197z M199.197,104.048V71.805h31.557v32.243H199.197z M182.366,23.783h33.661v32.243
	h-33.661V23.783z M70.863,56.026H39.789V23.783h31.075V56.026z M86.642,56.026V23.783h32.609v32.243H88.039H86.642z M135.03,104.048
	h-31.212V71.805h31.212V104.048z M135.03,56.026V23.783h31.557v32.243H135.03z M135.03,167.848h1.03h30.528v32.243H135.03V167.848z
	 M87.811,167.848h31.442v32.243H87.811V167.848z M55.085,248.112H23.782v-32.242h31.303
	C55.085,215.869,55.085,248.112,55.085,248.112z M70.863,248.112v-32.242h1.168h30.39v32.242h-30.39H70.863z M46.669,344.155h-30.89
	v-32.243h30.89C46.669,311.911,46.669,344.155,46.669,344.155z M62.448,344.155v-32.243h9.583h21.974v32.243H64.028H62.448z
	 M47.793,407.955h16.236H79.28v32.243H47.793V407.955z M55.085,488.219H23.782v-32.242h31.303
	C55.085,455.977,55.085,488.219,55.085,488.219z M102.421,488.219H70.863v-32.242h31.557V488.219z M151.861,488.219h-33.661v-32.242
	h33.661V488.219z M199.197,488.219h-31.557v-32.242h31.557V488.219z M246.533,455.977v32.242h-31.557v-32.242H246.533z
	 M222.339,440.198h-31.557v-32.243h31.557V440.198z M207.612,359.933v32.242h-33.661v-32.242H207.612z M216.027,296.134h-33.661
	v-32.242h33.661V296.134z M246.533,248.112h-31.557v-32.242h31.557V248.112z M263.363,200.091h-31.557v-32.243h31.557V200.091z
	 M278.09,152.069h-31.557v-32.242h31.557V152.069z M278.09,104.048h-31.557V71.805h31.557V104.048z M310.7,200.091h-31.557v-32.243
	H310.7V200.091z M359.088,200.091h-32.609v-32.243h32.609V200.091z M343.309,152.069v-32.242h31.557v32.242H343.309z
	 M408.182,200.091h-33.316v-32.243h33.316V200.091z M472.211,152.069h-33.178v-32.242h0.936h32.242L472.211,152.069L472.211,152.069
	z"/>
<path d="M384.058,495.995c-70.548,0-127.943-57.396-127.943-127.943s57.396-127.943,127.943-127.943s127.943,57.396,127.943,127.943
	S454.606,495.995,384.058,495.995z M384.058,255.887c-61.847,0-112.164,50.316-112.164,112.165s50.317,112.164,112.164,112.164
	S496.222,429.9,496.222,368.052S445.904,255.887,384.058,255.887z"/>
<path d="M384.058,471.984c-57.308,0-103.932-46.624-103.932-103.932S326.749,264.12,384.058,264.12s103.933,46.624,103.933,103.932
	S441.366,471.984,384.058,471.984z M384.058,279.897c-48.608,0-88.154,39.546-88.154,88.154s39.546,88.154,88.154,88.154
	c48.609,0,88.155-39.546,88.155-88.154S432.666,279.897,384.058,279.897z"/>
<polygon style="fill:#F2BF7E;" points="431.67,376.971 374.866,376.971 374.866,335.946 390.645,335.946 390.645,361.192 
	431.67,361.192 "/>
<rect x="374.87" y="287.563" width="15.779" height="24.194"/>
<rect x="323.941" y="312.051" transform="matrix(-0.7071 -0.7071 0.7071 -0.7071 347.2644 783.7231)" width="24.011" height="15.779"/>
<rect x="303.34" y="361.197" width="25.246" height="15.779"/>
<rect x="328.038" y="404.137" transform="matrix(-0.7071 -0.7071 0.7071 -0.7071 279.2061 947.9365)" width="15.779" height="24.011"/>
<rect x="374.87" y="423.26" width="15.779" height="25.246"/>
<rect x="420.16" y="408.262" transform="matrix(-0.7071 -0.7071 0.7071 -0.7071 443.488 1016.0013)" width="24.01" height="15.779"/>
<rect x="440.089" y="361.197" width="24.194" height="15.779"/>
<rect x="424.249" y="307.929" transform="matrix(-0.7071 -0.7071 0.7071 -0.7071 511.4777 851.7305)" width="15.779" height="24.011"/>
</svg>